<mxfile host="Electron" modified="2023-12-20T15:42:32.405Z" agent="Mozilla/5.0 (X11; Linux x86_64) AppleWebKit/537.36 (KHTML, like Gecko) draw.io/22.1.2 Chrome/114.0.5735.289 Electron/25.9.4 Safari/537.36" etag="nEgUXjzv20zL1dL2ISq5" version="22.1.2" type="device">
  <diagram name="Page-1" id="Page-1">
    <mxGraphModel dx="1372" dy="843" grid="1" gridSize="3.937" guides="1" tooltips="1" connect="1" arrows="1" fold="1" page="1" pageScale="1" pageWidth="827" pageHeight="1169" math="0" shadow="0">
      <root>
        <mxCell id="0" />
        <mxCell id="1" parent="0" />
        <UserObject label="&lt;div style=&quot;font-size: 1px&quot;&gt;&lt;font style=&quot;font-size:11.29px;font-family:Arial;color:#000000;direction:ltr;letter-spacing:0px;line-height:120%;opacity:1&quot;&gt;&lt;br/&gt;&lt;/font&gt;&lt;/div&gt;" tags="Фон" id="2">
          <mxCell style="verticalAlign=middle;align=center;overflow=width;vsdxID=90;rotation=270;fillColor=none;gradientColor=none;shape=stencil(nZBLDoAgDERP0z3SIyjew0SURgSD+Lu9kMZoXLhwN9O+tukAlrNpJg1SzDH4QW/URgNYgZTkjA4UkwJUgGXng+6DX1zLfmoymdXo17xh5zmRJ6Q42BWCfc2oJfdAr+Yv+AP9Cb7OJ3H/2JG1HNGz/84klThPVCc=);strokeColor=#000000;strokeWidth=4;points=[];labelBackgroundColor=none;rounded=0;html=1;whiteSpace=wrap;" parent="1" vertex="1">
            <mxGeometry x="-120.53" y="220.53" width="1128" height="726.94" as="geometry" />
          </mxCell>
        </UserObject>
        <UserObject label="&lt;div style=&quot;font-size: 17px;&quot;&gt;&lt;p style=&quot;text-align: center; margin: 0px; text-indent: 0px; vertical-align: middle; direction: ltr; font-size: 17px;&quot;&gt;&lt;font style=&quot;font-size: 17px; font-family: Arial; color: rgb(0, 0, 0); direction: ltr; letter-spacing: 0px; line-height: 120%; opacity: 1;&quot;&gt;&lt;i style=&quot;font-size: 17px;&quot;&gt;Локальная компьютерная сеть.&lt;/i&gt;&lt;/font&gt;&lt;font style=&quot;font-size: 17px; font-family: Arial; color: rgb(0, 0, 0); direction: ltr; letter-spacing: 0px; line-height: 120%; opacity: 1;&quot;&gt;&lt;i style=&quot;font-size: 17px;&quot;&gt;&lt;br style=&quot;font-size: 17px;&quot;&gt;&lt;/i&gt;&lt;/font&gt;&lt;font style=&quot;font-size: 17px; font-family: Arial; color: rgb(0, 0, 0); direction: ltr; letter-spacing: 0px; line-height: 120%; opacity: 1;&quot;&gt;&lt;i style=&quot;font-size: 17px;&quot;&gt;Ведомость документов&lt;br style=&quot;font-size: 17px;&quot;&gt;&lt;/i&gt;&lt;/font&gt;&lt;/p&gt;&lt;/div&gt;" tags="Фон" id="3">
          <mxCell style="verticalAlign=middle;align=center;overflow=width;vsdxID=97;fillColor=none;gradientColor=none;shape=stencil(nZBLDoAgDERP0z3SIyjew0SURgSD+Lu9kMZoXLhwN9O+tukAlrNpJg1SzDH4QW/URgNYgZTkjA4UkwJUgGXng+6DX1zLfmoymdXo17xh5zmRJ6Q42BWCfc2oJfdAr+Yv+AP9Cb7OJ3H/2JG1HNGz/84klThPVCc=);strokeColor=none;points=[];labelBackgroundColor=none;rounded=0;html=1;whiteSpace=wrap;fontSize=17;" parent="1" vertex="1">
            <mxGeometry x="339" y="1047" width="280" height="100" as="geometry" />
          </mxCell>
        </UserObject>
        <UserObject label="&lt;div style=&quot;font-size: 13px;&quot;&gt;&lt;p style=&quot;text-align: left; margin: 0px; text-indent: 0px; vertical-align: middle; direction: ltr; font-size: 13px;&quot;&gt;&lt;font style=&quot;font-size: 13px; font-family: Arial; color: rgb(0, 0, 0); direction: ltr; letter-spacing: 0px; line-height: 120%; opacity: 1;&quot;&gt;&lt;i style=&quot;font-size: 13px;&quot;&gt;Антохов&lt;/i&gt;&lt;/font&gt;&lt;/p&gt;&lt;/div&gt;" tags="Фон" id="4">
          <mxCell style="verticalAlign=middle;align=left;overflow=width;vsdxID=69;fillColor=none;gradientColor=none;shape=stencil(nZBLDoAgDERP0z3SIyjew0SURgSD+Lu9kMZoXLhwN9O+tukAlrNpJg1SzDH4QW/URgNYgZTkjA4UkwJUgGXng+6DX1zLfmoymdXo17xh5zmRJ6Q42BWCfc2oJfdAr+Yv+AP9Cb7OJ3H/2JG1HNGz/84klThPVCc=);strokeColor=none;strokeWidth=4;points=[];labelBackgroundColor=none;rounded=0;html=1;whiteSpace=wrap;fontSize=13;" parent="1" vertex="1">
            <mxGeometry x="157.5" y="1050" width="83" height="18" as="geometry" />
          </mxCell>
        </UserObject>
        <UserObject label="" tags="Фон" id="45">
          <mxCell style="vsdxID=198;edgeStyle=none;startArrow=none;endArrow=none;startSize=5;endSize=5;strokeWidth=4;strokeColor=#000000;spacingTop=0;spacingBottom=0;spacingLeft=0;spacingRight=0;verticalAlign=middle;html=1;labelBackgroundColor=#ffffff;rounded=0;" parent="1" edge="1">
            <mxGeometry relative="1" as="geometry">
              <Array as="points" />
              <mxPoint x="300" y="1146" as="sourcePoint" />
              <mxPoint x="300" y="22" as="targetPoint" />
            </mxGeometry>
          </mxCell>
        </UserObject>
        <UserObject label="" tags="Фон" id="46">
          <mxCell style="vsdxID=199;edgeStyle=none;startArrow=none;endArrow=none;startSize=5;endSize=5;strokeWidth=4;strokeColor=#000000;spacingTop=0;spacingBottom=0;spacingLeft=0;spacingRight=0;verticalAlign=middle;html=1;labelBackgroundColor=#ffffff;rounded=0;" parent="1" edge="1">
            <mxGeometry relative="1" as="geometry">
              <Array as="points" />
              <mxPoint x="680" y="988" as="sourcePoint" />
              <mxPoint x="680" y="20" as="targetPoint" />
            </mxGeometry>
          </mxCell>
        </UserObject>
        <UserObject label="" tags="Фон" id="47">
          <mxCell style="vsdxID=205;edgeStyle=none;startArrow=none;endArrow=none;startSize=5;endSize=5;strokeWidth=4;strokeColor=#000000;spacingTop=0;spacingBottom=0;spacingLeft=0;spacingRight=0;verticalAlign=middle;html=1;labelBackgroundColor=#ffffff;rounded=0;" parent="1" edge="1">
            <mxGeometry relative="1" as="geometry">
              <Array as="points" />
              <mxPoint x="340" y="988" as="sourcePoint" />
              <mxPoint x="80" y="988" as="targetPoint" />
            </mxGeometry>
          </mxCell>
        </UserObject>
        <UserObject label="" tags="Фон" id="48">
          <mxCell style="vsdxID=207;edgeStyle=none;startArrow=none;endArrow=none;startSize=5;endSize=5;strokeColor=#000000;spacingTop=0;spacingBottom=0;spacingLeft=0;spacingRight=0;verticalAlign=middle;html=1;labelBackgroundColor=#ffffff;rounded=0;" parent="1" edge="1">
            <mxGeometry relative="1" as="geometry">
              <mxPoint x="-1" as="offset" />
              <Array as="points" />
              <mxPoint x="80" y="1008" as="sourcePoint" />
              <mxPoint x="339" y="1008" as="targetPoint" />
            </mxGeometry>
          </mxCell>
        </UserObject>
        <UserObject label="" tags="Фон" id="49">
          <mxCell style="vsdxID=209;edgeStyle=none;startArrow=none;endArrow=none;startSize=5;endSize=5;strokeWidth=4;strokeColor=#000000;spacingTop=0;spacingBottom=0;spacingLeft=0;spacingRight=0;verticalAlign=middle;html=1;labelBackgroundColor=#ffffff;rounded=0;" parent="1" edge="1">
            <mxGeometry relative="1" as="geometry">
              <mxPoint as="offset" />
              <Array as="points" />
              <mxPoint x="80" y="1028" as="sourcePoint" />
              <mxPoint x="340" y="1028" as="targetPoint" />
            </mxGeometry>
          </mxCell>
        </UserObject>
        <UserObject label="" tags="Фон" id="50">
          <mxCell style="vsdxID=210;edgeStyle=none;startArrow=none;endArrow=none;startSize=5;endSize=5;strokeWidth=4;strokeColor=#000000;spacingTop=0;spacingBottom=0;spacingLeft=0;spacingRight=0;verticalAlign=middle;html=1;labelBackgroundColor=#ffffff;rounded=0;" parent="1" edge="1">
            <mxGeometry relative="1" as="geometry">
              <mxPoint as="offset" />
              <Array as="points" />
              <mxPoint x="80" y="1048" as="sourcePoint" />
              <mxPoint x="808" y="1048" as="targetPoint" />
            </mxGeometry>
          </mxCell>
        </UserObject>
        <UserObject label="" tags="Фон" id="51">
          <mxCell style="vsdxID=211;edgeStyle=none;startArrow=none;endArrow=none;startSize=5;endSize=5;strokeColor=#000000;spacingTop=0;spacingBottom=0;spacingLeft=0;spacingRight=0;verticalAlign=middle;html=1;labelBackgroundColor=#ffffff;rounded=0;" parent="1" edge="1">
            <mxGeometry relative="1" as="geometry">
              <mxPoint x="-1" as="offset" />
              <Array as="points" />
              <mxPoint x="80" y="1068" as="sourcePoint" />
              <mxPoint x="339" y="1068" as="targetPoint" />
            </mxGeometry>
          </mxCell>
        </UserObject>
        <UserObject label="" tags="Фон" id="52">
          <mxCell style="vsdxID=212;edgeStyle=none;startArrow=none;endArrow=none;startSize=5;endSize=5;strokeColor=#000000;spacingTop=0;spacingBottom=0;spacingLeft=0;spacingRight=0;verticalAlign=middle;html=1;labelBackgroundColor=#ffffff;rounded=0;" parent="1" edge="1">
            <mxGeometry relative="1" as="geometry">
              <Array as="points" />
              <mxPoint x="80" y="1129" as="sourcePoint" />
              <mxPoint x="340" y="1128" as="targetPoint" />
            </mxGeometry>
          </mxCell>
        </UserObject>
        <UserObject label="" tags="Фон" id="53">
          <mxCell style="vsdxID=213;edgeStyle=none;startArrow=none;endArrow=none;startSize=5;endSize=5;strokeColor=#000000;spacingTop=0;spacingBottom=0;spacingLeft=0;spacingRight=0;verticalAlign=middle;html=1;labelBackgroundColor=#ffffff;rounded=0;" parent="1" edge="1">
            <mxGeometry relative="1" as="geometry">
              <Array as="points" />
              <mxPoint x="80" y="1109" as="sourcePoint" />
              <mxPoint x="339" y="1107" as="targetPoint" />
            </mxGeometry>
          </mxCell>
        </UserObject>
        <UserObject label="" tags="Фон" id="54">
          <mxCell style="vsdxID=214;edgeStyle=none;startArrow=none;endArrow=none;startSize=5;endSize=5;strokeColor=#000000;spacingTop=0;spacingBottom=0;spacingLeft=0;spacingRight=0;verticalAlign=middle;html=1;labelBackgroundColor=#ffffff;rounded=0;" parent="1" edge="1">
            <mxGeometry relative="1" as="geometry">
              <mxPoint x="-1" as="offset" />
              <Array as="points" />
              <mxPoint x="80" y="1088" as="sourcePoint" />
              <mxPoint x="339" y="1088" as="targetPoint" />
            </mxGeometry>
          </mxCell>
        </UserObject>
        <UserObject label="" tags="Фон" id="55">
          <mxCell style="vsdxID=215;edgeStyle=none;startArrow=none;endArrow=none;startSize=5;endSize=5;strokeWidth=4;strokeColor=#000000;spacingTop=0;spacingBottom=0;spacingLeft=0;spacingRight=0;verticalAlign=middle;html=1;labelBackgroundColor=#ffffff;rounded=0;" parent="1" edge="1">
            <mxGeometry relative="1" as="geometry">
              <Array as="points" />
              <mxPoint x="340" y="988" as="sourcePoint" />
              <mxPoint x="340" y="1148" as="targetPoint" />
            </mxGeometry>
          </mxCell>
        </UserObject>
        <UserObject label="" tags="Фон" id="56">
          <mxCell style="vsdxID=216;edgeStyle=none;startArrow=none;endArrow=none;startSize=5;endSize=5;strokeWidth=4;strokeColor=#000000;spacingTop=0;spacingBottom=0;spacingLeft=0;spacingRight=0;verticalAlign=middle;html=1;labelBackgroundColor=#ffffff;rounded=0;" parent="1" edge="1">
            <mxGeometry relative="1" as="geometry">
              <Array as="points" />
              <mxPoint x="240" y="988" as="sourcePoint" />
              <mxPoint x="240" y="1148" as="targetPoint" />
            </mxGeometry>
          </mxCell>
        </UserObject>
        <UserObject label="" tags="Фон" id="57">
          <mxCell style="vsdxID=217;edgeStyle=none;startArrow=none;endArrow=none;startSize=5;endSize=5;strokeWidth=4;strokeColor=#000000;spacingTop=0;spacingBottom=0;spacingLeft=0;spacingRight=0;verticalAlign=middle;html=1;labelBackgroundColor=#ffffff;rounded=0;" parent="1" edge="1">
            <mxGeometry relative="1" as="geometry">
              <Array as="points" />
              <mxPoint x="152" y="1148" as="sourcePoint" />
              <mxPoint x="152" y="988" as="targetPoint" />
            </mxGeometry>
          </mxCell>
        </UserObject>
        <UserObject label="&lt;div style=&quot;font-size: 13px;&quot;&gt;&lt;p style=&quot;text-align: left; margin: 0px; text-indent: 0px; vertical-align: middle; direction: ltr; font-size: 13px;&quot;&gt;&lt;font style=&quot;font-size: 13px; font-family: Arial; color: rgb(0, 0, 0); direction: ltr; letter-spacing: 0px; line-height: 120%; opacity: 1;&quot;&gt;&lt;i style=&quot;font-size: 13px;&quot;&gt;Разраб.&lt;br style=&quot;font-size: 13px;&quot;&gt;&lt;/i&gt;&lt;/font&gt;&lt;/p&gt;&lt;/div&gt;" tags="Фон" id="5">
          <mxCell style="verticalAlign=middle;align=left;overflow=width;vsdxID=218;fillColor=none;gradientColor=none;shape=stencil(nZBLDoAgDERP0z3SIyjew0SURgSD+Lu9kMZoXLhwN9O+tukAlrNpJg1SzDH4QW/URgNYgZTkjA4UkwJUgGXng+6DX1zLfmoymdXo17xh5zmRJ6Q42BWCfc2oJfdAr+Yv+AP9Cb7OJ3H/2JG1HNGz/84klThPVCc=);strokeColor=none;strokeWidth=4;points=[];labelBackgroundColor=none;rounded=0;html=1;whiteSpace=wrap;fontSize=13;" parent="1" vertex="1">
            <mxGeometry x="85" y="1048" width="68" height="20" as="geometry" />
          </mxCell>
        </UserObject>
        <UserObject label="&lt;div style=&quot;font-size: 13px;&quot;&gt;&lt;p style=&quot;text-align: left; margin: 0px; text-indent: 0px; vertical-align: middle; direction: ltr; font-size: 13px;&quot;&gt;&lt;font style=&quot;font-size: 13px; font-family: Arial; color: rgb(0, 0, 0); direction: ltr; letter-spacing: 0px; line-height: 120%; opacity: 1;&quot;&gt;&lt;i style=&quot;font-size: 13px;&quot;&gt;Пров.&lt;br style=&quot;font-size: 13px;&quot;&gt;&lt;/i&gt;&lt;/font&gt;&lt;/p&gt;&lt;/div&gt;" tags="Фон" id="6">
          <mxCell style="verticalAlign=middle;align=left;overflow=width;vsdxID=219;fillColor=none;gradientColor=none;shape=stencil(nZBLDoAgDERP0z3SIyjew0SURgSD+Lu9kMZoXLhwN9O+tukAlrNpJg1SzDH4QW/URgNYgZTkjA4UkwJUgGXng+6DX1zLfmoymdXo17xh5zmRJ6Q42BWCfc2oJfdAr+Yv+AP9Cb7OJ3H/2JG1HNGz/84klThPVCc=);strokeColor=none;strokeWidth=4;points=[];labelBackgroundColor=none;rounded=0;html=1;whiteSpace=wrap;fontSize=13;" parent="1" vertex="1">
            <mxGeometry x="85" y="1068" width="68" height="20" as="geometry" />
          </mxCell>
        </UserObject>
        <UserObject label="" tags="Фон" id="58">
          <mxCell style="vsdxID=220;edgeStyle=none;startArrow=none;endArrow=none;startSize=5;endSize=5;strokeWidth=4;strokeColor=#000000;spacingTop=0;spacingBottom=0;spacingLeft=0;spacingRight=0;verticalAlign=middle;html=1;labelBackgroundColor=#ffffff;rounded=0;" parent="1" edge="1">
            <mxGeometry relative="1" as="geometry">
              <Array as="points" />
              <mxPoint x="112" y="1048" as="sourcePoint" />
              <mxPoint x="112" y="988" as="targetPoint" />
            </mxGeometry>
          </mxCell>
        </UserObject>
        <UserObject label="&lt;div style=&quot;font-size: 1px&quot;&gt;&lt;p style=&quot;text-align:center;margin-left:0;margin-right:0;margin-top:0px;margin-bottom:0px;text-indent:0;vertical-align:middle;direction:ltr;&quot;&gt;&lt;font style=&quot;font-size:9.88px;font-family:Arial;color:#000000;direction:ltr;letter-spacing:0px;line-height:120%;opacity:1&quot;&gt;&lt;i&gt;Изм&lt;br/&gt;&lt;/i&gt;&lt;/font&gt;&lt;/p&gt;&lt;/div&gt;" tags="Фон" id="7">
          <mxCell style="verticalAlign=middle;align=center;overflow=width;vsdxID=221;fillColor=none;gradientColor=none;shape=stencil(nZBLDoAgDERP0z3SIyjew0SURgSD+Lu9kMZoXLhwN9O+tukAlrNpJg1SzDH4QW/URgNYgZTkjA4UkwJUgGXng+6DX1zLfmoymdXo17xh5zmRJ6Q42BWCfc2oJfdAr+Yv+AP9Cb7OJ3H/2JG1HNGz/84klThPVCc=);strokeColor=none;strokeWidth=4;spacingLeft=-3;spacingRight=-3;points=[];labelBackgroundColor=none;rounded=0;html=1;whiteSpace=wrap;" parent="1" vertex="1">
            <mxGeometry x="80" y="1028" width="32" height="20" as="geometry" />
          </mxCell>
        </UserObject>
        <UserObject label="&lt;div style=&quot;font-size: 1px&quot;&gt;&lt;p style=&quot;text-align:center;margin-left:0;margin-right:0;margin-top:0px;margin-bottom:0px;text-indent:0;vertical-align:middle;direction:ltr;&quot;&gt;&lt;font style=&quot;font-size:11.29px;font-family:Arial;color:#000000;direction:ltr;letter-spacing:0px;line-height:120%;opacity:1&quot;&gt;&lt;i&gt;Лист&lt;br/&gt;&lt;/i&gt;&lt;/font&gt;&lt;/p&gt;&lt;/div&gt;" tags="Фон" id="8">
          <mxCell style="verticalAlign=middle;align=center;overflow=width;vsdxID=222;fillColor=none;gradientColor=none;shape=stencil(nZBLDoAgDERP0z3SIyjew0SURgSD+Lu9kMZoXLhwN9O+tukAlrNpJg1SzDH4QW/URgNYgZTkjA4UkwJUgGXng+6DX1zLfmoymdXo17xh5zmRJ6Q42BWCfc2oJfdAr+Yv+AP9Cb7OJ3H/2JG1HNGz/84klThPVCc=);strokeColor=none;strokeWidth=4;points=[];labelBackgroundColor=none;rounded=0;html=1;whiteSpace=wrap;" parent="1" vertex="1">
            <mxGeometry x="106" y="1028" width="48" height="20" as="geometry" />
          </mxCell>
        </UserObject>
        <UserObject label="" tags="Фон" id="59">
          <mxCell style="vsdxID=224;edgeStyle=none;startArrow=none;endArrow=none;startSize=5;endSize=5;strokeWidth=4;strokeColor=#000000;spacingTop=0;spacingBottom=0;spacingLeft=0;spacingRight=0;verticalAlign=middle;html=1;labelBackgroundColor=#ffffff;rounded=0;" parent="1" edge="1">
            <mxGeometry relative="1" as="geometry">
              <mxPoint as="offset" />
              <Array as="points" />
              <mxPoint x="340" y="988" as="sourcePoint" />
              <mxPoint x="808" y="988" as="targetPoint" />
            </mxGeometry>
          </mxCell>
        </UserObject>
        <UserObject label="" tags="Фон" id="60">
          <mxCell style="vsdxID=226;edgeStyle=none;startArrow=none;endArrow=none;startSize=5;endSize=5;strokeWidth=4;strokeColor=#000000;spacingTop=0;spacingBottom=0;spacingLeft=0;spacingRight=0;verticalAlign=middle;html=1;labelBackgroundColor=#ffffff;rounded=0;" parent="1" edge="1">
            <mxGeometry relative="1" as="geometry">
              <Array as="points" />
              <mxPoint x="680" y="1048" as="sourcePoint" />
              <mxPoint x="680" y="1088" as="targetPoint" />
            </mxGeometry>
          </mxCell>
        </UserObject>
        <UserObject label="" tags="Фон" id="61">
          <mxCell style="vsdxID=227;edgeStyle=none;startArrow=none;endArrow=none;startSize=5;endSize=5;strokeWidth=4;strokeColor=#000000;spacingTop=0;spacingBottom=0;spacingLeft=0;spacingRight=0;verticalAlign=middle;html=1;labelBackgroundColor=#ffffff;rounded=0;" parent="1" edge="1">
            <mxGeometry relative="1" as="geometry">
              <Array as="points" />
              <mxPoint x="620" y="1048" as="sourcePoint" />
              <mxPoint x="620" y="1148" as="targetPoint" />
            </mxGeometry>
          </mxCell>
        </UserObject>
        <UserObject label="" tags="Фон" id="62">
          <mxCell style="vsdxID=228;edgeStyle=none;startArrow=none;endArrow=none;startSize=5;endSize=5;strokeWidth=4;strokeColor=#000000;spacingTop=0;spacingBottom=0;spacingLeft=0;spacingRight=0;verticalAlign=middle;html=1;labelBackgroundColor=#ffffff;rounded=0;" parent="1" edge="1">
            <mxGeometry relative="1" as="geometry">
              <mxPoint as="offset" />
              <Array as="points" />
              <mxPoint x="620" y="1088" as="sourcePoint" />
              <mxPoint x="808" y="1088" as="targetPoint" />
            </mxGeometry>
          </mxCell>
        </UserObject>
        <UserObject label="" tags="Фон" id="63">
          <mxCell style="vsdxID=229;edgeStyle=none;startArrow=none;endArrow=none;startSize=5;endSize=5;strokeWidth=4;strokeColor=#000000;spacingTop=0;spacingBottom=0;spacingLeft=0;spacingRight=0;verticalAlign=middle;html=1;labelBackgroundColor=#ffffff;rounded=0;" parent="1" edge="1">
            <mxGeometry relative="1" as="geometry">
              <Array as="points" />
              <mxPoint x="750" y="1048" as="sourcePoint" />
              <mxPoint x="750" y="1088" as="targetPoint" />
            </mxGeometry>
          </mxCell>
        </UserObject>
        <UserObject label="&lt;div style=&quot;font-size: 1px&quot;&gt;&lt;p style=&quot;text-align:center;margin-left:0;margin-right:0;margin-top:0px;margin-bottom:0px;text-indent:0;vertical-align:middle;direction:ltr;&quot;&gt;&lt;font style=&quot;font-size:11.29px;font-family:Arial;color:#000000;direction:ltr;letter-spacing:0px;line-height:120%;opacity:1&quot;&gt;&lt;i&gt;Ли&lt;/i&gt;&lt;/font&gt;&lt;font style=&quot;font-size:11.29px;font-family:Arial;color:#000000;direction:ltr;letter-spacing:0px;line-height:120%;opacity:1&quot;&gt;&lt;i&gt;c&lt;/i&gt;&lt;/font&gt;&lt;font style=&quot;font-size:11.29px;font-family:Arial;color:#000000;direction:ltr;letter-spacing:0px;line-height:120%;opacity:1&quot;&gt;&lt;i&gt;т&lt;br/&gt;&lt;/i&gt;&lt;/font&gt;&lt;/p&gt;&lt;/div&gt;" tags="Фон" id="9">
          <mxCell style="verticalAlign=middle;align=center;overflow=width;vsdxID=230;fillColor=none;gradientColor=none;shape=stencil(nZBLDoAgDERP0z3SIyjew0SURgSD+Lu9kMZoXLhwN9O+tukAlrNpJg1SzDH4QW/URgNYgZTkjA4UkwJUgGXng+6DX1zLfmoymdXo17xh5zmRJ6Q42BWCfc2oJfdAr+Yv+AP9Cb7OJ3H/2JG1HNGz/84klThPVCc=);strokeColor=none;strokeWidth=4;points=[];labelBackgroundColor=none;rounded=0;html=1;whiteSpace=wrap;" parent="1" vertex="1">
            <mxGeometry x="685" y="1048" width="60" height="20" as="geometry" />
          </mxCell>
        </UserObject>
        <UserObject label="&lt;div style=&quot;font-size: 1px&quot;&gt;&lt;p style=&quot;text-align:center;margin-left:0;margin-right:0;margin-top:0px;margin-bottom:0px;text-indent:0;vertical-align:middle;direction:ltr;&quot;&gt;&lt;font style=&quot;font-size:11.29px;font-family:Arial;color:#000000;direction:ltr;letter-spacing:0px;line-height:120%;opacity:1&quot;&gt;&lt;i&gt;Ли&lt;/i&gt;&lt;/font&gt;&lt;font style=&quot;font-size:11.29px;font-family:Arial;color:#000000;direction:ltr;letter-spacing:0px;line-height:120%;opacity:1&quot;&gt;&lt;i&gt;c&lt;/i&gt;&lt;/font&gt;&lt;font style=&quot;font-size:11.29px;font-family:Arial;color:#000000;direction:ltr;letter-spacing:0px;line-height:120%;opacity:1&quot;&gt;&lt;i&gt;тов&lt;/i&gt;&lt;/font&gt;&lt;font style=&quot;font-size:11.29px;font-family:Arial;color:#000000;direction:ltr;letter-spacing:0px;line-height:120%;opacity:1&quot;&gt;&lt;i&gt;&lt;br/&gt;&lt;/i&gt;&lt;/font&gt;&lt;/p&gt;&lt;/div&gt;" tags="Фон" id="10">
          <mxCell style="verticalAlign=middle;align=center;overflow=width;vsdxID=231;fillColor=none;gradientColor=none;shape=stencil(nZBLDoAgDERP0z3SIyjew0SURgSD+Lu9kMZoXLhwN9O+tukAlrNpJg1SzDH4QW/URgNYgZTkjA4UkwJUgGXng+6DX1zLfmoymdXo17xh5zmRJ6Q42BWCfc2oJfdAr+Yv+AP9Cb7OJ3H/2JG1HNGz/84klThPVCc=);strokeColor=none;strokeWidth=4;points=[];labelBackgroundColor=none;rounded=0;html=1;whiteSpace=wrap;" parent="1" vertex="1">
            <mxGeometry x="748.03" y="1048" width="60" height="20" as="geometry" />
          </mxCell>
        </UserObject>
        <UserObject label="" tags="Фон" id="64">
          <mxCell style="vsdxID=232;edgeStyle=none;startArrow=none;endArrow=none;startSize=5;endSize=5;strokeWidth=4;strokeColor=#000000;spacingTop=0;spacingBottom=0;spacingLeft=0;spacingRight=0;verticalAlign=middle;html=1;labelBackgroundColor=#ffffff;rounded=0;" parent="1" edge="1">
            <mxGeometry relative="1" as="geometry">
              <mxPoint as="offset" />
              <Array as="points" />
              <mxPoint x="620" y="1068" as="sourcePoint" />
              <mxPoint x="808" y="1068" as="targetPoint" />
            </mxGeometry>
          </mxCell>
        </UserObject>
        <UserObject label="&lt;div style=&quot;font-size: 13px;&quot;&gt;&lt;p style=&quot;text-align: center; margin: 0px; text-indent: 0px; vertical-align: middle; direction: ltr; font-size: 13px;&quot;&gt;&lt;font style=&quot;font-size: 13px; font-family: Arial; color: rgb(0, 0, 0); direction: ltr; letter-spacing: 0px; line-height: 120%; opacity: 1;&quot;&gt;&lt;i style=&quot;font-size: 13px;&quot;&gt;У&lt;br style=&quot;font-size: 13px;&quot;&gt;&lt;/i&gt;&lt;/font&gt;&lt;/p&gt;&lt;/div&gt;" tags="Фон" id="11">
          <mxCell style="verticalAlign=middle;align=center;overflow=width;vsdxID=233;fillColor=none;gradientColor=none;shape=stencil(nZBLDoAgDERP0z3SIyjew0SURgSD+Lu9kMZoXLhwN9O+tukAlrNpJg1SzDH4QW/URgNYgZTkjA4UkwJUgGXng+6DX1zLfmoymdXo17xh5zmRJ6Q42BWCfc2oJfdAr+Yv+AP9Cb7OJ3H/2JG1HNGz/84klThPVCc=);strokeColor=none;strokeWidth=4;points=[];labelBackgroundColor=none;rounded=0;html=1;whiteSpace=wrap;fontSize=13;" parent="1" vertex="1">
            <mxGeometry x="620" y="1068" width="60" height="20" as="geometry" />
          </mxCell>
        </UserObject>
        <UserObject label="" tags="Фон" id="65">
          <mxCell style="vsdxID=234;edgeStyle=none;startArrow=none;endArrow=none;startSize=5;endSize=5;strokeColor=#000000;spacingTop=0;spacingBottom=0;spacingLeft=0;spacingRight=0;verticalAlign=middle;html=1;labelBackgroundColor=#ffffff;rounded=0;" parent="1" edge="1">
            <mxGeometry relative="1" as="geometry">
              <Array as="points" />
              <mxPoint x="640" y="1068" as="sourcePoint" />
              <mxPoint x="640" y="1088" as="targetPoint" />
            </mxGeometry>
          </mxCell>
        </UserObject>
        <UserObject label="" tags="Фон" id="66">
          <mxCell style="vsdxID=235;edgeStyle=none;startArrow=none;endArrow=none;startSize=5;endSize=5;strokeColor=#000000;spacingTop=0;spacingBottom=0;spacingLeft=0;spacingRight=0;verticalAlign=middle;html=1;labelBackgroundColor=#ffffff;rounded=0;" parent="1" edge="1">
            <mxGeometry relative="1" as="geometry">
              <Array as="points" />
              <mxPoint x="660" y="1068" as="sourcePoint" />
              <mxPoint x="660" y="1088" as="targetPoint" />
            </mxGeometry>
          </mxCell>
        </UserObject>
        <UserObject label="&lt;div style=&quot;font-size: 13px;&quot;&gt;&lt;p style=&quot;text-align: center; margin: 0px; text-indent: 0px; vertical-align: middle; direction: ltr; font-size: 13px;&quot;&gt;&lt;font style=&quot;font-size: 13px; font-family: Arial; color: rgb(0, 0, 0); direction: ltr; letter-spacing: 0px; line-height: 120%; opacity: 1;&quot;&gt;&lt;i style=&quot;font-size: 13px;&quot;&gt;1&lt;br style=&quot;font-size: 13px;&quot;&gt;&lt;/i&gt;&lt;/font&gt;&lt;/p&gt;&lt;/div&gt;" tags="Фон" id="12">
          <mxCell style="verticalAlign=middle;align=center;overflow=width;vsdxID=236;fillColor=none;gradientColor=none;shape=stencil(nZBLDoAgDERP0z3SIyjew0SURgSD+Lu9kMZoXLhwN9O+tukAlrNpJg1SzDH4QW/URgNYgZTkjA4UkwJUgGXng+6DX1zLfmoymdXo17xh5zmRJ6Q42BWCfc2oJfdAr+Yv+AP9Cb7OJ3H/2JG1HNGz/84klThPVCc=);strokeColor=none;strokeWidth=4;points=[];labelBackgroundColor=none;rounded=0;html=1;whiteSpace=wrap;fontSize=13;" parent="1" vertex="1">
            <mxGeometry x="751.97" y="1068" width="60" height="20" as="geometry" />
          </mxCell>
        </UserObject>
        <UserObject label="&lt;div style=&quot;font-size: 21px;&quot;&gt;&lt;p style=&quot;text-align: center; margin: 0px; text-indent: 0px; vertical-align: middle; direction: ltr; font-size: 21px;&quot;&gt;&lt;font style=&quot;font-size: 21px; font-family: Arial; color: rgb(0, 0, 0); direction: ltr; letter-spacing: 0px; line-height: 120%; opacity: 1;&quot;&gt;&lt;i style=&quot;font-size: 21px;&quot;&gt;ЭВМ, гр. 050503&lt;/i&gt;&lt;/font&gt;&lt;font style=&quot;font-size: 21px; font-family: Arial; color: rgb(0, 0, 0); direction: ltr; letter-spacing: 0px; line-height: 120%; opacity: 1;&quot;&gt;&lt;i style=&quot;font-size: 21px;&quot;&gt;&lt;br style=&quot;font-size: 21px;&quot;&gt;&lt;/i&gt;&lt;/font&gt;&lt;/p&gt;&lt;/div&gt;" tags="Фон" id="13">
          <mxCell style="verticalAlign=middle;align=center;overflow=width;vsdxID=238;fillColor=none;gradientColor=none;shape=stencil(nZBLDoAgDERP0z3SIyjew0SURgSD+Lu9kMZoXLhwN9O+tukAlrNpJg1SzDH4QW/URgNYgZTkjA4UkwJUgGXng+6DX1zLfmoymdXo17xh5zmRJ6Q42BWCfc2oJfdAr+Yv+AP9Cb7OJ3H/2JG1HNGz/84klThPVCc=);strokeColor=none;strokeWidth=4;points=[];labelBackgroundColor=none;rounded=0;html=1;whiteSpace=wrap;fontSize=21;" parent="1" vertex="1">
            <mxGeometry x="615" y="1088" width="200" height="60" as="geometry" />
          </mxCell>
        </UserObject>
        <UserObject label="&lt;div style=&quot;font-size: 1px&quot;&gt;&lt;p style=&quot;text-align:center;margin-left:0;margin-right:0;margin-top:0px;margin-bottom:0px;text-indent:0;vertical-align:middle;direction:ltr;&quot;&gt;&lt;font style=&quot;font-size:11.29px;font-family:Arial;color:#000000;direction:ltr;letter-spacing:0px;line-height:120%;opacity:1&quot;&gt;&lt;i&gt;Лит.&lt;br/&gt;&lt;/i&gt;&lt;/font&gt;&lt;/p&gt;&lt;/div&gt;" tags="Фон" id="14">
          <mxCell style="verticalAlign=middle;align=center;overflow=width;vsdxID=239;fillColor=none;gradientColor=none;shape=stencil(nZBLDoAgDERP0z3SIyjew0SURgSD+Lu9kMZoXLhwN9O+tukAlrNpJg1SzDH4QW/URgNYgZTkjA4UkwJUgGXng+6DX1zLfmoymdXo17xh5zmRJ6Q42BWCfc2oJfdAr+Yv+AP9Cb7OJ3H/2JG1HNGz/84klThPVCc=);strokeColor=none;strokeWidth=4;points=[];labelBackgroundColor=none;rounded=0;html=1;whiteSpace=wrap;" parent="1" vertex="1">
            <mxGeometry x="620" y="1048" width="60" height="20" as="geometry" />
          </mxCell>
        </UserObject>
        <UserObject label="&lt;div style=&quot;font-size: 1px&quot;&gt;&lt;p style=&quot;text-align:center;margin-left:0;margin-right:0;margin-top:0px;margin-bottom:0px;text-indent:0;vertical-align:middle;direction:ltr;&quot;&gt;&lt;font style=&quot;font-size:11.29px;font-family:Arial;color:#000000;direction:ltr;letter-spacing:0px;line-height:120%;opacity:1&quot;&gt;&lt;i&gt;№ документа&lt;br/&gt;&lt;/i&gt;&lt;/font&gt;&lt;/p&gt;&lt;/div&gt;" tags="Фон" id="15">
          <mxCell style="verticalAlign=middle;align=center;overflow=width;vsdxID=240;fillColor=none;gradientColor=none;shape=stencil(nZBLDoAgDERP0z3SIyjew0SURgSD+Lu9kMZoXLhwN9O+tukAlrNpJg1SzDH4QW/URgNYgZTkjA4UkwJUgGXng+6DX1zLfmoymdXo17xh5zmRJ6Q42BWCfc2oJfdAr+Yv+AP9Cb7OJ3H/2JG1HNGz/84klThPVCc=);strokeColor=none;strokeWidth=4;points=[];labelBackgroundColor=none;rounded=0;html=1;whiteSpace=wrap;" parent="1" vertex="1">
            <mxGeometry x="152" y="1028" width="88" height="20" as="geometry" />
          </mxCell>
        </UserObject>
        <UserObject label="&lt;div style=&quot;font-size: 1px&quot;&gt;&lt;p style=&quot;text-align:center;margin-left:0;margin-right:0;margin-top:0px;margin-bottom:0px;text-indent:0;vertical-align:middle;direction:ltr;&quot;&gt;&lt;font style=&quot;font-size:11.29px;font-family:Arial;color:#000000;direction:ltr;letter-spacing:0px;line-height:120%;opacity:1&quot;&gt;&lt;i&gt;Подпись&lt;br/&gt;&lt;/i&gt;&lt;/font&gt;&lt;/p&gt;&lt;/div&gt;" tags="Фон" id="16">
          <mxCell style="verticalAlign=middle;align=center;overflow=width;vsdxID=241;fillColor=none;gradientColor=none;shape=stencil(nZBLDoAgDERP0z3SIyjew0SURgSD+Lu9kMZoXLhwN9O+tukAlrNpJg1SzDH4QW/URgNYgZTkjA4UkwJUgGXng+6DX1zLfmoymdXo17xh5zmRJ6Q42BWCfc2oJfdAr+Yv+AP9Cb7OJ3H/2JG1HNGz/84klThPVCc=);strokeColor=none;strokeWidth=4;points=[];labelBackgroundColor=none;rounded=0;html=1;whiteSpace=wrap;" parent="1" vertex="1">
            <mxGeometry x="234" y="1028" width="66" height="20" as="geometry" />
          </mxCell>
        </UserObject>
        <UserObject label="&lt;div style=&quot;font-size: 1px&quot;&gt;&lt;p style=&quot;text-align:center;margin-left:0;margin-right:0;margin-top:0px;margin-bottom:0px;text-indent:0;vertical-align:middle;direction:ltr;&quot;&gt;&lt;font style=&quot;font-size:11.29px;font-family:Arial;color:#000000;direction:ltr;letter-spacing:0px;line-height:120%;opacity:1&quot;&gt;&lt;i&gt;Дата&lt;br/&gt;&lt;/i&gt;&lt;/font&gt;&lt;/p&gt;&lt;/div&gt;" tags="Фон" id="17">
          <mxCell style="verticalAlign=middle;align=center;overflow=width;vsdxID=242;fillColor=none;gradientColor=none;shape=stencil(nZBLDoAgDERP0z3SIyjew0SURgSD+Lu9kMZoXLhwN9O+tukAlrNpJg1SzDH4QW/URgNYgZTkjA4UkwJUgGXng+6DX1zLfmoymdXo17xh5zmRJ6Q42BWCfc2oJfdAr+Yv+AP9Cb7OJ3H/2JG1HNGz/84klThPVCc=);strokeColor=none;strokeWidth=4;points=[];labelBackgroundColor=none;rounded=0;html=1;whiteSpace=wrap;" parent="1" vertex="1">
            <mxGeometry x="296" y="1028" width="48" height="20" as="geometry" />
          </mxCell>
        </UserObject>
        <UserObject label="" tags="Фон" id="67">
          <mxCell style="vsdxID=243;edgeStyle=none;startArrow=none;endArrow=none;startSize=5;endSize=5;strokeColor=#000000;spacingTop=0;spacingBottom=0;spacingLeft=0;spacingRight=0;verticalAlign=middle;html=1;labelBackgroundColor=#ffffff;rounded=0;" parent="1" edge="1">
            <mxGeometry relative="1" as="geometry">
              <mxPoint as="offset" />
              <Array as="points" />
              <mxPoint x="80" y="948" as="sourcePoint" />
              <mxPoint x="808" y="948" as="targetPoint" />
            </mxGeometry>
          </mxCell>
        </UserObject>
        <UserObject label="" tags="Фон" id="68">
          <mxCell style="vsdxID=245;edgeStyle=none;startArrow=none;endArrow=none;startSize=5;endSize=5;strokeColor=#000000;spacingTop=0;spacingBottom=0;spacingLeft=0;spacingRight=0;verticalAlign=middle;html=1;labelBackgroundColor=#ffffff;rounded=0;" parent="1" edge="1">
            <mxGeometry relative="1" as="geometry">
              <mxPoint as="offset" />
              <Array as="points" />
              <mxPoint x="80" y="908" as="sourcePoint" />
              <mxPoint x="808" y="908" as="targetPoint" />
            </mxGeometry>
          </mxCell>
        </UserObject>
        <UserObject label="" tags="Фон" id="69">
          <mxCell style="vsdxID=246;edgeStyle=none;startArrow=none;endArrow=none;startSize=5;endSize=5;strokeColor=#000000;spacingTop=0;spacingBottom=0;spacingLeft=0;spacingRight=0;verticalAlign=middle;html=1;labelBackgroundColor=#ffffff;rounded=0;" parent="1" edge="1">
            <mxGeometry relative="1" as="geometry">
              <mxPoint as="offset" />
              <Array as="points" />
              <mxPoint x="80" y="868" as="sourcePoint" />
              <mxPoint x="808" y="868" as="targetPoint" />
            </mxGeometry>
          </mxCell>
        </UserObject>
        <UserObject label="" tags="Фон" id="70">
          <mxCell style="vsdxID=247;edgeStyle=none;startArrow=none;endArrow=none;startSize=5;endSize=5;strokeColor=#000000;spacingTop=0;spacingBottom=0;spacingLeft=0;spacingRight=0;verticalAlign=middle;html=1;labelBackgroundColor=#ffffff;rounded=0;" parent="1" edge="1">
            <mxGeometry relative="1" as="geometry">
              <mxPoint as="offset" />
              <Array as="points" />
              <mxPoint x="80" y="828" as="sourcePoint" />
              <mxPoint x="808" y="828" as="targetPoint" />
            </mxGeometry>
          </mxCell>
        </UserObject>
        <UserObject label="" tags="Фон" id="71">
          <mxCell style="vsdxID=248;edgeStyle=none;startArrow=none;endArrow=none;startSize=5;endSize=5;strokeColor=#000000;spacingTop=0;spacingBottom=0;spacingLeft=0;spacingRight=0;verticalAlign=middle;html=1;labelBackgroundColor=#ffffff;rounded=0;" parent="1" edge="1">
            <mxGeometry relative="1" as="geometry">
              <mxPoint as="offset" />
              <Array as="points" />
              <mxPoint x="80" y="788" as="sourcePoint" />
              <mxPoint x="808" y="788" as="targetPoint" />
            </mxGeometry>
          </mxCell>
        </UserObject>
        <UserObject label="" tags="Фон" id="72">
          <mxCell style="vsdxID=249;edgeStyle=none;startArrow=none;endArrow=none;startSize=5;endSize=5;strokeColor=#000000;spacingTop=0;spacingBottom=0;spacingLeft=0;spacingRight=0;verticalAlign=middle;html=1;labelBackgroundColor=#ffffff;rounded=0;" parent="1" edge="1">
            <mxGeometry relative="1" as="geometry">
              <mxPoint as="offset" />
              <Array as="points" />
              <mxPoint x="80" y="748" as="sourcePoint" />
              <mxPoint x="808" y="748" as="targetPoint" />
            </mxGeometry>
          </mxCell>
        </UserObject>
        <UserObject label="" tags="Фон" id="73">
          <mxCell style="vsdxID=250;edgeStyle=none;startArrow=none;endArrow=none;startSize=5;endSize=5;strokeColor=#000000;spacingTop=0;spacingBottom=0;spacingLeft=0;spacingRight=0;verticalAlign=middle;html=1;labelBackgroundColor=#ffffff;rounded=0;" parent="1" edge="1">
            <mxGeometry relative="1" as="geometry">
              <mxPoint as="offset" />
              <Array as="points" />
              <mxPoint x="80" y="708" as="sourcePoint" />
              <mxPoint x="808" y="708" as="targetPoint" />
            </mxGeometry>
          </mxCell>
        </UserObject>
        <UserObject label="" tags="Фон" id="74">
          <mxCell style="vsdxID=251;edgeStyle=none;startArrow=none;endArrow=none;startSize=5;endSize=5;strokeColor=#000000;spacingTop=0;spacingBottom=0;spacingLeft=0;spacingRight=0;verticalAlign=middle;html=1;labelBackgroundColor=#ffffff;rounded=0;" parent="1" edge="1">
            <mxGeometry relative="1" as="geometry">
              <mxPoint as="offset" />
              <Array as="points" />
              <mxPoint x="80" y="668" as="sourcePoint" />
              <mxPoint x="808" y="668" as="targetPoint" />
            </mxGeometry>
          </mxCell>
        </UserObject>
        <UserObject label="" tags="Фон" id="75">
          <mxCell style="vsdxID=252;edgeStyle=none;startArrow=none;endArrow=none;startSize=5;endSize=5;strokeColor=#000000;spacingTop=0;spacingBottom=0;spacingLeft=0;spacingRight=0;verticalAlign=middle;html=1;labelBackgroundColor=#ffffff;rounded=0;" parent="1" edge="1">
            <mxGeometry relative="1" as="geometry">
              <mxPoint as="offset" />
              <Array as="points" />
              <mxPoint x="80" y="628" as="sourcePoint" />
              <mxPoint x="808" y="628" as="targetPoint" />
            </mxGeometry>
          </mxCell>
        </UserObject>
        <UserObject label="" tags="Фон" id="76">
          <mxCell style="vsdxID=253;edgeStyle=none;startArrow=none;endArrow=none;startSize=5;endSize=5;strokeColor=#000000;spacingTop=0;spacingBottom=0;spacingLeft=0;spacingRight=0;verticalAlign=middle;html=1;labelBackgroundColor=#ffffff;rounded=0;" parent="1" edge="1">
            <mxGeometry relative="1" as="geometry">
              <mxPoint as="offset" />
              <Array as="points" />
              <mxPoint x="80" y="588" as="sourcePoint" />
              <mxPoint x="808" y="588" as="targetPoint" />
            </mxGeometry>
          </mxCell>
        </UserObject>
        <UserObject label="" tags="Фон" id="77">
          <mxCell style="vsdxID=254;edgeStyle=none;startArrow=none;endArrow=none;startSize=5;endSize=5;strokeColor=#000000;spacingTop=0;spacingBottom=0;spacingLeft=0;spacingRight=0;verticalAlign=middle;html=1;labelBackgroundColor=#ffffff;rounded=0;" parent="1" edge="1">
            <mxGeometry relative="1" as="geometry">
              <mxPoint as="offset" />
              <Array as="points" />
              <mxPoint x="80" y="548" as="sourcePoint" />
              <mxPoint x="808" y="548" as="targetPoint" />
            </mxGeometry>
          </mxCell>
        </UserObject>
        <UserObject label="" tags="Фон" id="78">
          <mxCell style="vsdxID=255;edgeStyle=none;startArrow=none;endArrow=none;startSize=5;endSize=5;strokeColor=#000000;spacingTop=0;spacingBottom=0;spacingLeft=0;spacingRight=0;verticalAlign=middle;html=1;labelBackgroundColor=#ffffff;rounded=0;" parent="1" edge="1">
            <mxGeometry relative="1" as="geometry">
              <mxPoint as="offset" />
              <Array as="points" />
              <mxPoint x="80" y="508" as="sourcePoint" />
              <mxPoint x="808" y="508" as="targetPoint" />
            </mxGeometry>
          </mxCell>
        </UserObject>
        <UserObject label="" tags="Фон" id="79">
          <mxCell style="vsdxID=256;edgeStyle=none;startArrow=none;endArrow=none;startSize=5;endSize=5;strokeColor=#000000;spacingTop=0;spacingBottom=0;spacingLeft=0;spacingRight=0;verticalAlign=middle;html=1;labelBackgroundColor=#ffffff;rounded=0;" parent="1" edge="1">
            <mxGeometry relative="1" as="geometry">
              <mxPoint as="offset" />
              <Array as="points" />
              <mxPoint x="80" y="468" as="sourcePoint" />
              <mxPoint x="808" y="468" as="targetPoint" />
            </mxGeometry>
          </mxCell>
        </UserObject>
        <UserObject label="" tags="Фон" id="80">
          <mxCell style="vsdxID=257;edgeStyle=none;startArrow=none;endArrow=none;startSize=5;endSize=5;strokeColor=#000000;spacingTop=0;spacingBottom=0;spacingLeft=0;spacingRight=0;verticalAlign=middle;html=1;labelBackgroundColor=#ffffff;rounded=0;" parent="1" edge="1">
            <mxGeometry relative="1" as="geometry">
              <mxPoint as="offset" />
              <Array as="points" />
              <mxPoint x="80" y="428" as="sourcePoint" />
              <mxPoint x="808" y="428" as="targetPoint" />
            </mxGeometry>
          </mxCell>
        </UserObject>
        <UserObject label="" tags="Фон" id="81">
          <mxCell style="vsdxID=258;edgeStyle=none;startArrow=none;endArrow=none;startSize=5;endSize=5;strokeColor=#000000;spacingTop=0;spacingBottom=0;spacingLeft=0;spacingRight=0;verticalAlign=middle;html=1;labelBackgroundColor=#ffffff;rounded=0;" parent="1" edge="1">
            <mxGeometry relative="1" as="geometry">
              <mxPoint as="offset" />
              <Array as="points" />
              <mxPoint x="80" y="388" as="sourcePoint" />
              <mxPoint x="808" y="388" as="targetPoint" />
            </mxGeometry>
          </mxCell>
        </UserObject>
        <UserObject label="" tags="Фон" id="82">
          <mxCell style="vsdxID=259;edgeStyle=none;startArrow=none;endArrow=none;startSize=5;endSize=5;strokeColor=#000000;spacingTop=0;spacingBottom=0;spacingLeft=0;spacingRight=0;verticalAlign=middle;html=1;labelBackgroundColor=#ffffff;rounded=0;" parent="1" edge="1">
            <mxGeometry relative="1" as="geometry">
              <mxPoint as="offset" />
              <Array as="points" />
              <mxPoint x="80" y="348" as="sourcePoint" />
              <mxPoint x="808" y="348" as="targetPoint" />
            </mxGeometry>
          </mxCell>
        </UserObject>
        <UserObject label="" tags="Фон" id="83">
          <mxCell style="vsdxID=260;edgeStyle=none;startArrow=none;endArrow=none;startSize=5;endSize=5;strokeColor=#000000;spacingTop=0;spacingBottom=0;spacingLeft=0;spacingRight=0;verticalAlign=middle;html=1;labelBackgroundColor=#ffffff;rounded=0;" parent="1" edge="1">
            <mxGeometry relative="1" as="geometry">
              <mxPoint as="offset" />
              <Array as="points" />
              <mxPoint x="80" y="308" as="sourcePoint" />
              <mxPoint x="808" y="308" as="targetPoint" />
            </mxGeometry>
          </mxCell>
        </UserObject>
        <UserObject label="" tags="Фон" id="84">
          <mxCell style="vsdxID=261;edgeStyle=none;startArrow=none;endArrow=none;startSize=5;endSize=5;strokeColor=#000000;spacingTop=0;spacingBottom=0;spacingLeft=0;spacingRight=0;verticalAlign=middle;html=1;labelBackgroundColor=#ffffff;rounded=0;" parent="1" edge="1">
            <mxGeometry relative="1" as="geometry">
              <mxPoint as="offset" />
              <Array as="points" />
              <mxPoint x="80" y="268" as="sourcePoint" />
              <mxPoint x="808" y="268" as="targetPoint" />
            </mxGeometry>
          </mxCell>
        </UserObject>
        <UserObject label="" tags="Фон" id="85">
          <mxCell style="vsdxID=262;edgeStyle=none;startArrow=none;endArrow=none;startSize=5;endSize=5;strokeColor=#000000;spacingTop=0;spacingBottom=0;spacingLeft=0;spacingRight=0;verticalAlign=middle;html=1;labelBackgroundColor=#ffffff;rounded=0;" parent="1" edge="1">
            <mxGeometry relative="1" as="geometry">
              <mxPoint as="offset" />
              <Array as="points" />
              <mxPoint x="80" y="228" as="sourcePoint" />
              <mxPoint x="808" y="228" as="targetPoint" />
            </mxGeometry>
          </mxCell>
        </UserObject>
        <UserObject label="" tags="Фон" id="86">
          <mxCell style="vsdxID=263;edgeStyle=none;startArrow=none;endArrow=none;startSize=5;endSize=5;strokeColor=#000000;spacingTop=0;spacingBottom=0;spacingLeft=0;spacingRight=0;verticalAlign=middle;html=1;labelBackgroundColor=#ffffff;rounded=0;" parent="1" edge="1">
            <mxGeometry relative="1" as="geometry">
              <mxPoint as="offset" />
              <Array as="points" />
              <mxPoint x="80" y="188" as="sourcePoint" />
              <mxPoint x="808" y="188" as="targetPoint" />
            </mxGeometry>
          </mxCell>
        </UserObject>
        <UserObject label="" tags="Фон" id="87">
          <mxCell style="vsdxID=264;edgeStyle=none;startArrow=none;endArrow=none;startSize=5;endSize=5;strokeColor=#000000;spacingTop=0;spacingBottom=0;spacingLeft=0;spacingRight=0;verticalAlign=middle;html=1;labelBackgroundColor=#ffffff;rounded=0;" parent="1" edge="1">
            <mxGeometry relative="1" as="geometry">
              <mxPoint as="offset" />
              <Array as="points" />
              <mxPoint x="80" y="148" as="sourcePoint" />
              <mxPoint x="808" y="148" as="targetPoint" />
            </mxGeometry>
          </mxCell>
        </UserObject>
        <UserObject label="" tags="Фон" id="88">
          <mxCell style="vsdxID=265;edgeStyle=none;startArrow=none;endArrow=none;startSize=5;endSize=5;strokeColor=#000000;spacingTop=0;spacingBottom=0;spacingLeft=0;spacingRight=0;verticalAlign=middle;html=1;labelBackgroundColor=#ffffff;rounded=0;" parent="1" edge="1">
            <mxGeometry relative="1" as="geometry">
              <mxPoint as="offset" />
              <Array as="points" />
              <mxPoint x="80" y="108" as="sourcePoint" />
              <mxPoint x="808" y="108" as="targetPoint" />
            </mxGeometry>
          </mxCell>
        </UserObject>
        <UserObject label="" tags="Фон" id="89">
          <mxCell style="vsdxID=266;edgeStyle=none;startArrow=none;endArrow=none;startSize=5;endSize=5;strokeWidth=4;strokeColor=#000000;spacingTop=0;spacingBottom=0;spacingLeft=0;spacingRight=0;verticalAlign=middle;html=1;labelBackgroundColor=#ffffff;rounded=0;" parent="1" edge="1">
            <mxGeometry relative="1" as="geometry">
              <mxPoint as="offset" />
              <Array as="points" />
              <mxPoint x="80" y="68" as="sourcePoint" />
              <mxPoint x="808" y="68" as="targetPoint" />
            </mxGeometry>
          </mxCell>
        </UserObject>
        <UserObject label="&lt;div style=&quot;font-size: 20px;&quot;&gt;&lt;p style=&quot;margin: 0px; text-indent: 0px; vertical-align: middle; direction: ltr; font-size: 20px;&quot;&gt;&lt;font style=&quot;font-size: 20px; font-family: Arial; color: rgb(0, 0, 0); direction: ltr; letter-spacing: 0px; line-height: 120%; opacity: 1;&quot;&gt;&lt;i style=&quot;font-size: 20px;&quot;&gt;Обозначение&lt;br style=&quot;font-size: 20px;&quot;&gt;&lt;/i&gt;&lt;/font&gt;&lt;/p&gt;&lt;/div&gt;" tags="Фон" id="18">
          <mxCell style="verticalAlign=middle;align=center;overflow=width;vsdxID=273;fillColor=none;gradientColor=none;shape=stencil(nZBLDoAgDERP0z3SIyjew0SURgSD+Lu9kMZoXLhwN9O+tukAlrNpJg1SzDH4QW/URgNYgZTkjA4UkwJUgGXng+6DX1zLfmoymdXo17xh5zmRJ6Q42BWCfc2oJfdAr+Yv+AP9Cb7OJ3H/2JG1HNGz/84klThPVCc=);strokeColor=none;points=[];labelBackgroundColor=none;rounded=0;html=1;whiteSpace=wrap;fontSize=20;" parent="1" vertex="1">
            <mxGeometry x="80" y="20" width="220" height="47" as="geometry" />
          </mxCell>
        </UserObject>
        <UserObject label="&lt;div style=&quot;font-size: 20px;&quot;&gt;&lt;p style=&quot;margin: 0px; text-indent: 0px; vertical-align: middle; direction: ltr; font-size: 20px;&quot;&gt;&lt;font style=&quot;font-size: 20px; font-family: Arial; color: rgb(0, 0, 0); direction: ltr; letter-spacing: 0px; line-height: 120%; opacity: 1;&quot;&gt;&lt;i style=&quot;font-size: 20px;&quot;&gt;Наименование&lt;br style=&quot;font-size: 20px;&quot;&gt;&lt;/i&gt;&lt;/font&gt;&lt;/p&gt;&lt;/div&gt;" tags="Фон" id="19">
          <mxCell style="verticalAlign=middle;align=center;overflow=width;vsdxID=274;fillColor=none;gradientColor=none;shape=stencil(nZBLDoAgDERP0z3SIyjew0SURgSD+Lu9kMZoXLhwN9O+tukAlrNpJg1SzDH4QW/URgNYgZTkjA4UkwJUgGXng+6DX1zLfmoymdXo17xh5zmRJ6Q42BWCfc2oJfdAr+Yv+AP9Cb7OJ3H/2JG1HNGz/84klThPVCc=);strokeColor=none;points=[];labelBackgroundColor=none;rounded=0;html=1;whiteSpace=wrap;fontSize=20;" parent="1" vertex="1">
            <mxGeometry x="300" y="20" width="380" height="47" as="geometry" />
          </mxCell>
        </UserObject>
        <UserObject label="&lt;div style=&quot;font-size: 20px;&quot;&gt;&lt;p style=&quot;margin: 0px; text-indent: 0px; vertical-align: middle; direction: ltr; font-size: 20px;&quot;&gt;&lt;font style=&quot;font-size: 20px; font-family: Arial; color: rgb(0, 0, 0); direction: ltr; letter-spacing: 0px; line-height: 120%; opacity: 1;&quot;&gt;&lt;i style=&quot;font-size: 20px;&quot;&gt;Примечание&lt;br style=&quot;font-size: 20px;&quot;&gt;&lt;/i&gt;&lt;/font&gt;&lt;/p&gt;&lt;/div&gt;" tags="Фон" id="20">
          <mxCell style="verticalAlign=middle;align=center;overflow=width;vsdxID=275;fillColor=none;gradientColor=none;shape=stencil(nZBLDoAgDERP0z3SIyjew0SURgSD+Lu9kMZoXLhwN9O+tukAlrNpJg1SzDH4QW/URgNYgZTkjA4UkwJUgGXng+6DX1zLfmoymdXo17xh5zmRJ6Q42BWCfc2oJfdAr+Yv+AP9Cb7OJ3H/2JG1HNGz/84klThPVCc=);strokeColor=none;points=[];labelBackgroundColor=none;rounded=0;html=1;whiteSpace=wrap;fontSize=20;" parent="1" vertex="1">
            <mxGeometry x="671.97" y="20" width="140" height="47" as="geometry" />
          </mxCell>
        </UserObject>
        <UserObject label="&lt;div style=&quot;font-size: 20px;&quot;&gt;&lt;p style=&quot;text-align: center; margin: 0px; text-indent: 0px; vertical-align: middle; direction: ltr; font-size: 20px;&quot;&gt;&lt;font style=&quot;font-size: 20px; font-family: Arial; color: rgb(0, 0, 0); direction: ltr; letter-spacing: 0px; line-height: 120%; opacity: 1;&quot;&gt;&lt;u style=&quot;font-size: 20px;&quot;&gt;&lt;i style=&quot;font-size: 20px;&quot;&gt;Графические документы&lt;br style=&quot;font-size: 20px;&quot;&gt;&lt;/i&gt;&lt;/u&gt;&lt;/font&gt;&lt;/p&gt;&lt;/div&gt;" tags="Фон" id="21">
          <mxCell style="verticalAlign=middle;align=center;overflow=width;vsdxID=276;fillColor=none;gradientColor=none;shape=stencil(nZBLDoAgDERP0z3SIyjew0SURgSD+Lu9kMZoXLhwN9O+tukAlrNpJg1SzDH4QW/URgNYgZTkjA4UkwJUgGXng+6DX1zLfmoymdXo17xh5zmRJ6Q42BWCfc2oJfdAr+Yv+AP9Cb7OJ3H/2JG1HNGz/84klThPVCc=);strokeColor=none;points=[];labelBackgroundColor=none;rounded=0;html=1;whiteSpace=wrap;fontSize=20;" parent="1" vertex="1">
            <mxGeometry x="300" y="108" width="380" height="40" as="geometry" />
          </mxCell>
        </UserObject>
        <UserObject label="&lt;div style=&quot;font-size: 20px;&quot;&gt;&lt;p style=&quot;text-align: left; margin: 0px; text-indent: 0px; vertical-align: middle; direction: ltr; font-size: 20px;&quot;&gt;&lt;font style=&quot;font-size: 20px; font-family: Arial; color: rgb(0, 0, 0); direction: ltr; letter-spacing: 0px; line-height: 120%; opacity: 1;&quot;&gt;&lt;i style=&quot;font-size: 20px;&quot;&gt;   А4&lt;/i&gt;&lt;/font&gt;&lt;font style=&quot;font-size: 20px; font-family: Arial; color: rgb(0, 0, 0); direction: ltr; letter-spacing: 0px; line-height: 120%; opacity: 1;&quot;&gt;&lt;i style=&quot;font-size: 20px;&quot;&gt;&lt;br style=&quot;font-size: 20px;&quot;&gt;&lt;/i&gt;&lt;/font&gt;&lt;/p&gt;&lt;/div&gt;" tags="Фон" id="22">
          <mxCell style="verticalAlign=middle;align=left;overflow=width;vsdxID=280;fillColor=none;gradientColor=none;shape=stencil(nZBLDoAgDERP0z3SIyjew0SURgSD+Lu9kMZoXLhwN9O+tukAlrNpJg1SzDH4QW/URgNYgZTkjA4UkwJUgGXng+6DX1zLfmoymdXo17xh5zmRJ6Q42BWCfc2oJfdAr+Yv+AP9Cb7OJ3H/2JG1HNGz/84klThPVCc=);strokeColor=none;points=[];labelBackgroundColor=none;rounded=0;html=1;whiteSpace=wrap;fontSize=20;" parent="1" vertex="1">
            <mxGeometry x="687" y="148" width="120.08" height="40" as="geometry" />
          </mxCell>
        </UserObject>
        <UserObject label="&lt;div style=&quot;font-size: 20px;&quot;&gt;&lt;p style=&quot;text-align: left; margin: 0px; text-indent: 0px; vertical-align: middle; direction: ltr; font-size: 20px;&quot;&gt;&lt;font style=&quot;font-size: 20px; font-family: Arial; color: rgb(0, 0, 0); direction: ltr; letter-spacing: 0px; line-height: 120%; opacity: 1;&quot;&gt;&lt;i style=&quot;font-size: 20px;&quot;&gt;Пояснительная записка&lt;/i&gt;&lt;/font&gt;&lt;font style=&quot;font-size: 20px; font-family: Arial; color: rgb(0, 0, 0); direction: ltr; letter-spacing: 0px; line-height: 120%; opacity: 1;&quot;&gt;&lt;i style=&quot;font-size: 20px;&quot;&gt;&lt;br style=&quot;font-size: 20px;&quot;&gt;&lt;/i&gt;&lt;/font&gt;&lt;/p&gt;&lt;/div&gt;" tags="Фон" id="23">
          <mxCell style="verticalAlign=middle;align=left;overflow=width;vsdxID=291;fillColor=none;gradientColor=none;shape=stencil(nZBLDoAgDERP0z3SIyjew0SURgSD+Lu9kMZoXLhwN9O+tukAlrNpJg1SzDH4QW/URgNYgZTkjA4UkwJUgGXng+6DX1zLfmoymdXo17xh5zmRJ6Q42BWCfc2oJfdAr+Yv+AP9Cb7OJ3H/2JG1HNGz/84klThPVCc=);strokeColor=none;points=[];labelBackgroundColor=none;rounded=0;html=1;whiteSpace=wrap;fontSize=20;" parent="1" vertex="1">
            <mxGeometry x="307" y="508" width="380" height="40" as="geometry" />
          </mxCell>
        </UserObject>
        <UserObject label="&lt;div style=&quot;font-size: 20px;&quot;&gt;&lt;p style=&quot;text-align: left; margin: 0px; text-indent: 0px; vertical-align: middle; direction: ltr; font-size: 20px;&quot;&gt;&lt;font style=&quot;font-size: 20px; font-family: Arial; color: rgb(0, 0, 0); direction: ltr; letter-spacing: 0px; line-height: 120%; opacity: 1;&quot;&gt;&lt;i style=&quot;font-size: 20px;&quot;&gt;ГУИР 400201.057 С1&lt;br style=&quot;font-size: 20px;&quot;&gt;&lt;/i&gt;&lt;/font&gt;&lt;/p&gt;&lt;/div&gt;" tags="Фон" id="24">
          <mxCell style="verticalAlign=middle;align=left;overflow=width;vsdxID=292;fillColor=none;gradientColor=none;shape=stencil(nZBLDoAgDERP0z3SIyjew0SURgSD+Lu9kMZoXLhwN9O+tukAlrNpJg1SzDH4QW/URgNYgZTkjA4UkwJUgGXng+6DX1zLfmoymdXo17xh5zmRJ6Q42BWCfc2oJfdAr+Yv+AP9Cb7OJ3H/2JG1HNGz/84klThPVCc=);strokeColor=none;points=[];labelBackgroundColor=none;rounded=0;html=1;whiteSpace=wrap;fontSize=20;" parent="1" vertex="1">
            <mxGeometry x="87" y="148" width="220" height="40" as="geometry" />
          </mxCell>
        </UserObject>
        <UserObject label="&lt;div style=&quot;font-size: 20px;&quot;&gt;&lt;p style=&quot;text-align: left; margin: 0px; text-indent: 0px; vertical-align: middle; direction: ltr; font-size: 20px;&quot;&gt;&lt;font style=&quot;font-size: 20px; font-family: Arial; color: rgb(0, 0, 0); direction: ltr; letter-spacing: 0px; line-height: 120%; opacity: 1;&quot;&gt;&lt;i style=&quot;font-size: 20px;&quot;&gt;40 c.&lt;br style=&quot;font-size: 20px;&quot;&gt;&lt;/i&gt;&lt;/font&gt;&lt;/p&gt;&lt;/div&gt;" tags="Фон" id="25">
          <mxCell style="verticalAlign=middle;align=left;overflow=width;vsdxID=296;fillColor=none;gradientColor=none;shape=stencil(nZBLDoAgDERP0z3SIyjew0SURgSD+Lu9kMZoXLhwN9O+tukAlrNpJg1SzDH4QW/URgNYgZTkjA4UkwJUgGXng+6DX1zLfmoymdXo17xh5zmRJ6Q42BWCfc2oJfdAr+Yv+AP9Cb7OJ3H/2JG1HNGz/84klThPVCc=);strokeColor=none;points=[];labelBackgroundColor=none;rounded=0;html=1;whiteSpace=wrap;fontSize=20;" parent="1" vertex="1">
            <mxGeometry x="690" y="468" width="117.08" height="40" as="geometry" />
          </mxCell>
        </UserObject>
        <UserObject label="&lt;div style=&quot;font-size: 20px;&quot;&gt;&lt;p style=&quot;text-align: left; margin: 0px; text-indent: 0px; vertical-align: middle; direction: ltr; font-size: 20px;&quot;&gt;&lt;font style=&quot;font-family: Arial; color: rgb(0, 0, 0); direction: ltr; letter-spacing: 0px; line-height: 120%; opacity: 1; font-size: 20px;&quot;&gt;&lt;i style=&quot;font-size: 20px;&quot;&gt;&lt;font style=&quot;font-size: 20px;&quot;&gt;Локальная компьютерная сеть.&lt;/font&gt;&lt;br style=&quot;font-size: 20px;&quot;&gt;&lt;/i&gt;&lt;/font&gt;&lt;/p&gt;&lt;/div&gt;" tags="Фон" id="26">
          <mxCell style="verticalAlign=middle;align=left;overflow=width;vsdxID=307;fillColor=none;gradientColor=none;shape=stencil(nZBLDoAgDERP0z3SIyjew0SURgSD+Lu9kMZoXLhwN9O+tukAlrNpJg1SzDH4QW/URgNYgZTkjA4UkwJUgGXng+6DX1zLfmoymdXo17xh5zmRJ6Q42BWCfc2oJfdAr+Yv+AP9Cb7OJ3H/2JG1HNGz/84klThPVCc=);strokeColor=none;points=[];labelBackgroundColor=none;rounded=0;html=1;whiteSpace=wrap;fontSize=20;" parent="1" vertex="1">
            <mxGeometry x="307" y="148" width="380" height="40" as="geometry" />
          </mxCell>
        </UserObject>
        <UserObject label="&lt;div style=&quot;font-size: 20px;&quot;&gt;&lt;p style=&quot;text-align: left; margin: 0px; text-indent: 0px; vertical-align: middle; direction: ltr; font-size: 20px;&quot;&gt;&lt;font style=&quot;font-size: 20px; font-family: Arial; color: rgb(0, 0, 0); direction: ltr; letter-spacing: 0px; line-height: 120%; opacity: 1;&quot;&gt;&lt;i style=&quot;font-size: 20px;&quot;&gt;Схема СКС структурная&lt;br style=&quot;font-size: 20px;&quot;&gt;&lt;/i&gt;&lt;/font&gt;&lt;/p&gt;&lt;/div&gt;" tags="Фон" id="27">
          <mxCell style="verticalAlign=middle;align=left;overflow=width;vsdxID=310;fillColor=none;gradientColor=none;shape=stencil(nZBLDoAgDERP0z3SIyjew0SURgSD+Lu9kMZoXLhwN9O+tukAlrNpJg1SzDH4QW/URgNYgZTkjA4UkwJUgGXng+6DX1zLfmoymdXo17xh5zmRJ6Q42BWCfc2oJfdAr+Yv+AP9Cb7OJ3H/2JG1HNGz/84klThPVCc=);strokeColor=none;points=[];labelBackgroundColor=none;rounded=0;html=1;whiteSpace=wrap;fontSize=20;" parent="1" vertex="1">
            <mxGeometry x="306" y="188" width="380" height="40" as="geometry" />
          </mxCell>
        </UserObject>
        <UserObject label="&lt;div style=&quot;font-size: 20px;&quot;&gt;&lt;p style=&quot;text-align: left; margin: 0px; text-indent: 0px; vertical-align: middle; direction: ltr; font-size: 20px;&quot;&gt;&lt;font style=&quot;font-size: 20px; font-family: Arial; color: rgb(0, 0, 0); direction: ltr; letter-spacing: 0px; line-height: 120%; opacity: 1;&quot;&gt;&lt;i style=&quot;font-size: 20px;&quot;&gt;   А3&lt;br style=&quot;font-size: 20px;&quot;&gt;&lt;/i&gt;&lt;/font&gt;&lt;/p&gt;&lt;/div&gt;" tags="Фон" id="28">
          <mxCell style="verticalAlign=middle;align=left;overflow=width;vsdxID=314;fillColor=none;gradientColor=none;shape=stencil(nZBLDoAgDERP0z3SIyjew0SURgSD+Lu9kMZoXLhwN9O+tukAlrNpJg1SzDH4QW/URgNYgZTkjA4UkwJUgGXng+6DX1zLfmoymdXo17xh5zmRJ6Q42BWCfc2oJfdAr+Yv+AP9Cb7OJ3H/2JG1HNGz/84klThPVCc=);strokeColor=none;points=[];labelBackgroundColor=none;rounded=0;html=1;whiteSpace=wrap;fontSize=20;" parent="1" vertex="1">
            <mxGeometry x="687" y="228" width="116.15" height="40" as="geometry" />
          </mxCell>
        </UserObject>
        <UserObject label="&lt;div style=&quot;font-size: 20px;&quot;&gt;&lt;p style=&quot;text-align: left; margin: 0px; text-indent: 0px; vertical-align: middle; direction: ltr; font-size: 20px;&quot;&gt;&lt;font style=&quot;font-size: 20px; font-family: Arial; color: rgb(0, 0, 0); direction: ltr; letter-spacing: 0px; line-height: 120%; opacity: 1;&quot;&gt;&lt;i style=&quot;font-size: 20px;&quot;&gt;ГУИР 400201.301 ПС7&lt;br style=&quot;font-size: 20px;&quot;&gt;&lt;/i&gt;&lt;/font&gt;&lt;/p&gt;&lt;/div&gt;" tags="Фон" id="30">
          <mxCell style="verticalAlign=middle;align=left;overflow=width;vsdxID=321;fillColor=none;gradientColor=none;shape=stencil(nZBLDoAgDERP0z3SIyjew0SURgSD+Lu9kMZoXLhwN9O+tukAlrNpJg1SzDH4QW/URgNYgZTkjA4UkwJUgGXng+6DX1zLfmoymdXo17xh5zmRJ6Q42BWCfc2oJfdAr+Yv+AP9Cb7OJ3H/2JG1HNGz/84klThPVCc=);strokeColor=none;points=[];labelBackgroundColor=none;rounded=0;html=1;whiteSpace=wrap;fontSize=20;" parent="1" vertex="1">
            <mxGeometry x="87" y="548" width="220" height="40" as="geometry" />
          </mxCell>
        </UserObject>
        <UserObject label="&lt;div style=&quot;font-size: 20px;&quot;&gt;&lt;p style=&quot;text-align: left; margin: 0px; text-indent: 0px; vertical-align: middle; direction: ltr; font-size: 20px;&quot;&gt;&lt;font style=&quot;font-size: 20px; font-family: Arial; color: rgb(0, 0, 0); direction: ltr; letter-spacing: 0px; line-height: 120%; opacity: 1;&quot;&gt;&lt;i style=&quot;background-color: initial; border-color: var(--border-color);&quot;&gt;Перечень&amp;nbsp;&lt;/i&gt;&lt;i style=&quot;font-size: 20px;&quot;&gt;оборудования, изделий и&lt;br style=&quot;font-size: 20px;&quot;&gt;&lt;/i&gt;&lt;/font&gt;&lt;/p&gt;&lt;/div&gt;" tags="Фон" id="31">
          <mxCell style="verticalAlign=middle;align=left;overflow=width;vsdxID=323;fillColor=none;gradientColor=none;shape=stencil(nZBLDoAgDERP0z3SIyjew0SURgSD+Lu9kMZoXLhwN9O+tukAlrNpJg1SzDH4QW/URgNYgZTkjA4UkwJUgGXng+6DX1zLfmoymdXo17xh5zmRJ6Q42BWCfc2oJfdAr+Yv+AP9Cb7OJ3H/2JG1HNGz/84klThPVCc=);strokeColor=none;points=[];labelBackgroundColor=none;rounded=0;html=1;whiteSpace=wrap;fontSize=20;" parent="1" vertex="1">
            <mxGeometry x="307" y="588" width="380" height="40" as="geometry" />
          </mxCell>
        </UserObject>
        <UserObject label="&lt;div style=&quot;font-size: 20px;&quot;&gt;&lt;p style=&quot;text-align: center; margin: 0px; text-indent: 0px; vertical-align: middle; direction: ltr; font-size: 20px;&quot;&gt;&lt;font style=&quot;font-size: 20px; font-family: Arial; color: rgb(0, 0, 0); direction: ltr; letter-spacing: 0px; line-height: 120%; opacity: 1;&quot;&gt;&lt;u style=&quot;font-size: 20px;&quot;&gt;&lt;i style=&quot;font-size: 20px;&quot;&gt;Текстовые документы&lt;br style=&quot;font-size: 20px;&quot;&gt;&lt;/i&gt;&lt;/u&gt;&lt;/font&gt;&lt;/p&gt;&lt;/div&gt;" tags="Фон" id="32">
          <mxCell style="verticalAlign=middle;align=center;overflow=width;vsdxID=326;fillColor=none;gradientColor=none;shape=stencil(nZBLDoAgDERP0z3SIyjew0SURgSD+Lu9kMZoXLhwN9O+tukAlrNpJg1SzDH4QW/URgNYgZTkjA4UkwJUgGXng+6DX1zLfmoymdXo17xh5zmRJ6Q42BWCfc2oJfdAr+Yv+AP9Cb7OJ3H/2JG1HNGz/84klThPVCc=);strokeColor=none;points=[];labelBackgroundColor=none;rounded=0;html=1;whiteSpace=wrap;fontSize=20;" parent="1" vertex="1">
            <mxGeometry x="300" y="428" width="380" height="40" as="geometry" />
          </mxCell>
        </UserObject>
        <UserObject label="&lt;div style=&quot;font-size: 20px;&quot;&gt;&lt;p style=&quot;text-align: left; margin: 0px; text-indent: 0px; vertical-align: middle; direction: ltr; font-size: 20px;&quot;&gt;&lt;font style=&quot;font-size: 20px; font-family: Arial; color: rgb(0, 0, 0); direction: ltr; letter-spacing: 0px; line-height: 120%; opacity: 1;&quot;&gt;&lt;i style=&quot;font-size: 20px;&quot;&gt;ГУИР.400201.057&lt;/i&gt;&lt;/font&gt;&lt;font style=&quot;font-size: 20px; font-family: Arial; color: rgb(0, 0, 0); direction: ltr; letter-spacing: 0px; line-height: 120%; opacity: 1;&quot;&gt;&lt;i style=&quot;font-size: 20px;&quot;&gt;&amp;nbsp;ПЗ&lt;/i&gt;&lt;/font&gt;&lt;font style=&quot;font-size: 20px; font-family: Arial; color: rgb(0, 0, 0); direction: ltr; letter-spacing: 0px; line-height: 120%; opacity: 1;&quot;&gt;&lt;i style=&quot;font-size: 20px;&quot;&gt;&lt;br style=&quot;font-size: 20px;&quot;&gt;&lt;/i&gt;&lt;/font&gt;&lt;/p&gt;&lt;/div&gt;" tags="Фон" id="33">
          <mxCell style="verticalAlign=middle;align=left;overflow=width;vsdxID=329;fillColor=none;gradientColor=none;shape=stencil(nZBLDoAgDERP0z3SIyjew0SURgSD+Lu9kMZoXLhwN9O+tukAlrNpJg1SzDH4QW/URgNYgZTkjA4UkwJUgGXng+6DX1zLfmoymdXo17xh5zmRJ6Q42BWCfc2oJfdAr+Yv+AP9Cb7OJ3H/2JG1HNGz/84klThPVCc=);strokeColor=none;points=[];labelBackgroundColor=none;rounded=0;html=1;whiteSpace=wrap;fontSize=20;" parent="1" vertex="1">
            <mxGeometry x="87" y="468" width="220" height="40" as="geometry" />
          </mxCell>
        </UserObject>
        <UserObject label="&lt;div style=&quot;font-size: 20px;&quot;&gt;&lt;p style=&quot;text-align: left; margin: 0px; text-indent: 0px; vertical-align: middle; direction: ltr; font-size: 20px;&quot;&gt;&lt;font style=&quot;font-size: 20px; font-family: Arial; color: rgb(0, 0, 0); direction: ltr; letter-spacing: 0px; line-height: 120%; opacity: 1;&quot;&gt;&lt;i style=&quot;font-size: 20px;&quot;&gt;ГУИР 400201.057 С2&lt;br style=&quot;font-size: 20px;&quot;&gt;&lt;/i&gt;&lt;/font&gt;&lt;/p&gt;&lt;/div&gt;" tags="Фон" id="34">
          <mxCell style="verticalAlign=middle;align=left;overflow=width;vsdxID=351;fillColor=none;gradientColor=none;shape=stencil(nZBLDoAgDERP0z3SIyjew0SURgSD+Lu9kMZoXLhwN9O+tukAlrNpJg1SzDH4QW/URgNYgZTkjA4UkwJUgGXng+6DX1zLfmoymdXo17xh5zmRJ6Q42BWCfc2oJfdAr+Yv+AP9Cb7OJ3H/2JG1HNGz/84klThPVCc=);strokeColor=none;points=[];labelBackgroundColor=none;rounded=0;html=1;whiteSpace=wrap;fontSize=20;" parent="1" vertex="1">
            <mxGeometry x="87" y="228" width="220" height="40" as="geometry" />
          </mxCell>
        </UserObject>
        <UserObject label="&lt;div style=&quot;font-size: 20px;&quot;&gt;&lt;p style=&quot;text-align: left; margin: 0px; text-indent: 0px; vertical-align: middle; direction: ltr; font-size: 20px;&quot;&gt;&lt;font style=&quot;font-size: 20px; font-family: Arial; color: rgb(0, 0, 0); direction: ltr; letter-spacing: 0px; line-height: 120%; opacity: 1;&quot;&gt;&lt;i style=&quot;font-size: 20px;&quot;&gt;Локальная компьютерная сеть.&lt;br style=&quot;font-size: 20px;&quot;&gt;&lt;/i&gt;&lt;/font&gt;&lt;/p&gt;&lt;/div&gt;" tags="Фон" id="35">
          <mxCell style="verticalAlign=middle;align=left;overflow=width;vsdxID=352;fillColor=none;gradientColor=none;shape=stencil(nZBLDoAgDERP0z3SIyjew0SURgSD+Lu9kMZoXLhwN9O+tukAlrNpJg1SzDH4QW/URgNYgZTkjA4UkwJUgGXng+6DX1zLfmoymdXo17xh5zmRJ6Q42BWCfc2oJfdAr+Yv+AP9Cb7OJ3H/2JG1HNGz/84klThPVCc=);strokeColor=none;points=[];labelBackgroundColor=none;rounded=0;html=1;whiteSpace=wrap;fontSize=20;" parent="1" vertex="1">
            <mxGeometry x="306" y="228" width="380" height="40" as="geometry" />
          </mxCell>
        </UserObject>
        <UserObject label="&lt;div style=&quot;font-size: 20px;&quot;&gt;&lt;p style=&quot;text-align: left; margin: 0px; text-indent: 0px; vertical-align: middle; direction: ltr; font-size: 20px;&quot;&gt;&lt;font style=&quot;font-size: 20px; font-family: Arial; color: rgb(0, 0, 0); direction: ltr; letter-spacing: 0px; line-height: 120%; opacity: 1;&quot;&gt;&lt;i style=&quot;font-size: 20px;&quot;&gt;Схема СКС функциональная&lt;br style=&quot;font-size: 20px;&quot;&gt;&lt;/i&gt;&lt;/font&gt;&lt;/p&gt;&lt;/div&gt;" tags="Фон" id="36">
          <mxCell style="verticalAlign=middle;align=left;overflow=width;vsdxID=353;fillColor=none;gradientColor=none;shape=stencil(nZBLDoAgDERP0z3SIyjew0SURgSD+Lu9kMZoXLhwN9O+tukAlrNpJg1SzDH4QW/URgNYgZTkjA4UkwJUgGXng+6DX1zLfmoymdXo17xh5zmRJ6Q42BWCfc2oJfdAr+Yv+AP9Cb7OJ3H/2JG1HNGz/84klThPVCc=);strokeColor=none;points=[];labelBackgroundColor=none;rounded=0;html=1;whiteSpace=wrap;fontSize=20;" parent="1" vertex="1">
            <mxGeometry x="306" y="268" width="380" height="40" as="geometry" />
          </mxCell>
        </UserObject>
        <UserObject label="&lt;div style=&quot;font-size: 20px;&quot;&gt;&lt;p style=&quot;text-align: left; margin: 0px; text-indent: 0px; vertical-align: middle; direction: ltr; font-size: 20px;&quot;&gt;&lt;font style=&quot;font-size: 20px; font-family: Arial; color: rgb(0, 0, 0); direction: ltr; letter-spacing: 0px; line-height: 120%; opacity: 1;&quot;&gt;&lt;i style=&quot;font-size: 20px;&quot;&gt;ГУИР 400201.057 С3&lt;br style=&quot;font-size: 20px;&quot;&gt;&lt;/i&gt;&lt;/font&gt;&lt;/p&gt;&lt;/div&gt;" tags="Фон" id="37">
          <mxCell style="verticalAlign=middle;align=left;overflow=width;vsdxID=354;fillColor=none;gradientColor=none;shape=stencil(nZBLDoAgDERP0z3SIyjew0SURgSD+Lu9kMZoXLhwN9O+tukAlrNpJg1SzDH4QW/URgNYgZTkjA4UkwJUgGXng+6DX1zLfmoymdXo17xh5zmRJ6Q42BWCfc2oJfdAr+Yv+AP9Cb7OJ3H/2JG1HNGz/84klThPVCc=);strokeColor=none;points=[];labelBackgroundColor=none;rounded=0;html=1;whiteSpace=wrap;fontSize=20;" parent="1" vertex="1">
            <mxGeometry x="87" y="308" width="220" height="40" as="geometry" />
          </mxCell>
        </UserObject>
        <UserObject label="&lt;div style=&quot;font-size: 20px;&quot;&gt;&lt;p style=&quot;text-align: left; margin: 0px; text-indent: 0px; vertical-align: middle; direction: ltr; font-size: 20px;&quot;&gt;&lt;font style=&quot;font-size: 20px; font-family: Arial; color: rgb(0, 0, 0); direction: ltr; letter-spacing: 0px; line-height: 120%; opacity: 1;&quot;&gt;&lt;i style=&quot;font-size: 20px;&quot;&gt;Локальная компьютерная сеть.&lt;br style=&quot;font-size: 20px;&quot;&gt;&lt;/i&gt;&lt;/font&gt;&lt;/p&gt;&lt;/div&gt;" tags="Фон" id="38">
          <mxCell style="verticalAlign=middle;align=left;overflow=width;vsdxID=355;fillColor=none;gradientColor=none;shape=stencil(nZBLDoAgDERP0z3SIyjew0SURgSD+Lu9kMZoXLhwN9O+tukAlrNpJg1SzDH4QW/URgNYgZTkjA4UkwJUgGXng+6DX1zLfmoymdXo17xh5zmRJ6Q42BWCfc2oJfdAr+Yv+AP9Cb7OJ3H/2JG1HNGz/84klThPVCc=);strokeColor=none;points=[];labelBackgroundColor=none;rounded=0;html=1;whiteSpace=wrap;fontSize=20;" parent="1" vertex="1">
            <mxGeometry x="306" y="308" width="380" height="40" as="geometry" />
          </mxCell>
        </UserObject>
        <UserObject label="&lt;div style=&quot;font-size: 20px;&quot;&gt;&lt;p style=&quot;text-align: left; margin: 0px; text-indent: 0px; vertical-align: middle; direction: ltr; font-size: 20px;&quot;&gt;&lt;font style=&quot;font-size: 20px; font-family: Arial; color: rgb(0, 0, 0); direction: ltr; letter-spacing: 0px; line-height: 120%; opacity: 1;&quot;&gt;&lt;i style=&quot;font-size: 20px;&quot;&gt;План этажа&lt;br style=&quot;font-size: 20px;&quot;&gt;&lt;/i&gt;&lt;/font&gt;&lt;/p&gt;&lt;/div&gt;" tags="Фон" id="39">
          <mxCell style="verticalAlign=middle;align=left;overflow=width;vsdxID=356;fillColor=none;gradientColor=none;shape=stencil(nZBLDoAgDERP0z3SIyjew0SURgSD+Lu9kMZoXLhwN9O+tukAlrNpJg1SzDH4QW/URgNYgZTkjA4UkwJUgGXng+6DX1zLfmoymdXo17xh5zmRJ6Q42BWCfc2oJfdAr+Yv+AP9Cb7OJ3H/2JG1HNGz/84klThPVCc=);strokeColor=none;points=[];labelBackgroundColor=none;rounded=0;html=1;whiteSpace=wrap;fontSize=20;" parent="1" vertex="1">
            <mxGeometry x="306" y="348" width="380" height="40" as="geometry" />
          </mxCell>
        </UserObject>
        <UserObject label="&lt;div style=&quot;font-size: 13px;&quot;&gt;&lt;p style=&quot;text-align: left; margin: 0px; text-indent: 0px; vertical-align: middle; direction: ltr; font-size: 13px;&quot;&gt;&lt;font style=&quot;font-size: 13px; font-family: Arial; color: rgb(0, 0, 0); direction: ltr; letter-spacing: 0px; line-height: 120%; opacity: 1;&quot;&gt;&lt;i style=&quot;font-size: 13px;&quot;&gt;Русакович&lt;br style=&quot;font-size: 13px;&quot;&gt;&lt;/i&gt;&lt;/font&gt;&lt;/p&gt;&lt;/div&gt;" tags="Фон" id="40">
          <mxCell style="verticalAlign=middle;align=left;overflow=width;vsdxID=357;fillColor=none;gradientColor=none;shape=stencil(nZBLDoAgDERP0z3SIyjew0SURgSD+Lu9kMZoXLhwN9O+tukAlrNpJg1SzDH4QW/URgNYgZTkjA4UkwJUgGXng+6DX1zLfmoymdXo17xh5zmRJ6Q42BWCfc2oJfdAr+Yv+AP9Cb7OJ3H/2JG1HNGz/84klThPVCc=);strokeColor=none;strokeWidth=4;points=[];labelBackgroundColor=none;rounded=0;html=1;whiteSpace=wrap;fontSize=13;" parent="1" vertex="1">
            <mxGeometry x="158" y="1068" width="86" height="20" as="geometry" />
          </mxCell>
        </UserObject>
        <UserObject label="&lt;div style=&quot;font-size: 20px;&quot;&gt;&lt;p style=&quot;text-align: left; margin: 0px; text-indent: 0px; vertical-align: middle; direction: ltr; font-size: 20px;&quot;&gt;&lt;font style=&quot;font-size: 20px; font-family: Arial; color: rgb(0, 0, 0); direction: ltr; letter-spacing: 0px; line-height: 120%; opacity: 1;&quot;&gt;&lt;i style=&quot;font-size: 20px;&quot;&gt;А4&lt;/i&gt;&lt;/font&gt;&lt;/p&gt;&lt;/div&gt;" tags="Фон" id="41">
          <mxCell style="verticalAlign=middle;align=left;overflow=width;vsdxID=361;fillColor=none;gradientColor=none;shape=stencil(nZBLDoAgDERP0z3SIyjew0SURgSD+Lu9kMZoXLhwN9O+tukAlrNpJg1SzDH4QW/URgNYgZTkjA4UkwJUgGXng+6DX1zLfmoymdXo17xh5zmRJ6Q42BWCfc2oJfdAr+Yv+AP9Cb7OJ3H/2JG1HNGz/84klThPVCc=);strokeColor=none;points=[];labelBackgroundColor=none;rounded=0;html=1;whiteSpace=wrap;fontSize=20;" parent="1" vertex="1">
            <mxGeometry x="689" y="548" width="118.08" height="40" as="geometry" />
          </mxCell>
        </UserObject>
        <UserObject label="&lt;div style=&quot;&quot;&gt;&lt;p style=&quot;text-align: left; margin: 0px; text-indent: 0px; vertical-align: middle; direction: ltr;&quot;&gt;&lt;font style=&quot;font-family: Arial; color: rgb(0, 0, 0); direction: ltr; letter-spacing: 0px; line-height: 120%; opacity: 1;&quot;&gt;&lt;i style=&quot;&quot;&gt;&lt;font style=&quot;font-size: 20px;&quot;&gt;Локальная компьютерная сеть.&lt;/font&gt;&lt;br style=&quot;font-size: 20px;&quot;&gt;&lt;/i&gt;&lt;/font&gt;&lt;/p&gt;&lt;/div&gt;" tags="Фон" id="42">
          <mxCell style="verticalAlign=middle;align=left;overflow=width;vsdxID=362;fillColor=none;gradientColor=none;shape=stencil(nZBLDoAgDERP0z3SIyjew0SURgSD+Lu9kMZoXLhwN9O+tukAlrNpJg1SzDH4QW/URgNYgZTkjA4UkwJUgGXng+6DX1zLfmoymdXo17xh5zmRJ6Q42BWCfc2oJfdAr+Yv+AP9Cb7OJ3H/2JG1HNGz/84klThPVCc=);strokeColor=none;points=[];labelBackgroundColor=none;rounded=0;html=1;whiteSpace=wrap;fontSize=20;" parent="1" vertex="1">
            <mxGeometry x="307" y="548" width="373" height="40" as="geometry" />
          </mxCell>
        </UserObject>
        <UserObject label="&lt;div style=&quot;font-size: 20px;&quot;&gt;&lt;p style=&quot;text-align: left; margin: 0px; text-indent: 0px; vertical-align: middle; direction: ltr; font-size: 20px;&quot;&gt;&lt;font style=&quot;font-size: 20px; font-family: Arial; color: rgb(0, 0, 0); direction: ltr; letter-spacing: 0px; line-height: 120%; opacity: 1;&quot;&gt;&lt;i style=&quot;font-size: 20px;&quot;&gt;Локальная компьютерная сеть.&lt;br style=&quot;font-size: 20px;&quot;&gt;&lt;/i&gt;&lt;/font&gt;&lt;/p&gt;&lt;/div&gt;" tags="Фон" id="43">
          <mxCell style="verticalAlign=middle;align=left;overflow=width;vsdxID=363;fillColor=none;gradientColor=none;shape=stencil(nZBLDoAgDERP0z3SIyjew0SURgSD+Lu9kMZoXLhwN9O+tukAlrNpJg1SzDH4QW/URgNYgZTkjA4UkwJUgGXng+6DX1zLfmoymdXo17xh5zmRJ6Q42BWCfc2oJfdAr+Yv+AP9Cb7OJ3H/2JG1HNGz/84klThPVCc=);strokeColor=none;points=[];labelBackgroundColor=none;rounded=0;html=1;whiteSpace=wrap;fontSize=20;" parent="1" vertex="1">
            <mxGeometry x="307" y="468" width="380" height="40" as="geometry" />
          </mxCell>
        </UserObject>
        <UserObject label="&lt;div style=&quot;font-size: 1px&quot;&gt;&lt;p style=&quot;text-align:center;margin-left:0;margin-right:0;margin-top:0px;margin-bottom:0px;text-indent:0;vertical-align:middle;direction:ltr;&quot;&gt;&lt;font style=&quot;font-size:33.87px;font-family:Arial;color:#000000;direction:ltr;letter-spacing:0px;line-height:120%;opacity:1&quot;&gt;&lt;i&gt;ГУИР.400201.301 Д&lt;/i&gt;&lt;/font&gt;&lt;font style=&quot;font-size:33.87px;font-family:Arial;color:#000000;direction:ltr;letter-spacing:0px;line-height:120%;opacity:1&quot;&gt;&lt;i&gt;1&lt;/i&gt;&lt;/font&gt;&lt;font style=&quot;font-size:22.58px;font-family:Arial;color:#000000;direction:ltr;letter-spacing:0px;line-height:120%;opacity:1&quot;&gt;&lt;i&gt;&lt;br&gt;&lt;/i&gt;&lt;/font&gt;&lt;/p&gt;&lt;/div&gt;" tags="Фон" id="44">
          <mxCell style="verticalAlign=middle;align=center;overflow=width;vsdxID=364;fillColor=none;gradientColor=none;shape=stencil(nZBLDoAgDERP0z3SIyjew0SURgSD+Lu9kMZoXLhwN9O+tukAlrNpJg1SzDH4QW/URgNYgZTkjA4UkwJUgGXng+6DX1zLfmoymdXo17xh5zmRJ6Q42BWCfc2oJfdAr+Yv+AP9Cb7OJ3H/2JG1HNGz/84klThPVCc=);strokeColor=none;points=[];labelBackgroundColor=none;rounded=0;html=1;whiteSpace=wrap;" parent="1" vertex="1">
            <mxGeometry x="343" y="988" width="474" height="60" as="geometry" />
          </mxCell>
        </UserObject>
        <UserObject label="" tags="Connector Flowchart" id="90">
          <mxCell parent="1" vertex="1" visible="0">
            <mxGeometry as="geometry" />
          </mxCell>
        </UserObject>
        <UserObject label="&lt;div style=&quot;font-size: 20px;&quot;&gt;&lt;p style=&quot;text-align: left; margin: 0px; text-indent: 0px; vertical-align: middle; direction: ltr; font-size: 20px;&quot;&gt;&lt;font style=&quot;font-size: 20px; font-family: Arial; color: rgb(0, 0, 0); direction: ltr; letter-spacing: 0px; line-height: 120%; opacity: 1;&quot;&gt;&lt;i&gt;материалов&lt;/i&gt;&lt;i style=&quot;font-size: 20px;&quot;&gt;&lt;br style=&quot;font-size: 20px;&quot;&gt;&lt;/i&gt;&lt;/font&gt;&lt;/p&gt;&lt;/div&gt;" tags="Фон" id="Uz869o0kOJxQINFS2KNt-90">
          <mxCell style="verticalAlign=middle;align=left;overflow=width;vsdxID=323;fillColor=none;gradientColor=none;shape=stencil(nZBLDoAgDERP0z3SIyjew0SURgSD+Lu9kMZoXLhwN9O+tukAlrNpJg1SzDH4QW/URgNYgZTkjA4UkwJUgGXng+6DX1zLfmoymdXo17xh5zmRJ6Q42BWCfc2oJfdAr+Yv+AP9Cb7OJ3H/2JG1HNGz/84klThPVCc=);strokeColor=none;points=[];labelBackgroundColor=none;rounded=0;html=1;whiteSpace=wrap;fontSize=20;" parent="1" vertex="1">
            <mxGeometry x="306" y="628" width="380" height="40" as="geometry" />
          </mxCell>
        </UserObject>
        <UserObject label="&lt;div style=&quot;font-size: 20px;&quot;&gt;&lt;p style=&quot;text-align: left; margin: 0px; text-indent: 0px; vertical-align: middle; direction: ltr; font-size: 20px;&quot;&gt;&lt;font style=&quot;font-size: 20px; font-family: Arial; color: rgb(0, 0, 0); direction: ltr; letter-spacing: 0px; line-height: 120%; opacity: 1;&quot;&gt;&lt;i style=&quot;font-size: 20px;&quot;&gt;   А3&lt;br style=&quot;font-size: 20px;&quot;&gt;&lt;/i&gt;&lt;/font&gt;&lt;/p&gt;&lt;/div&gt;" tags="Фон" id="SP2AzERPz8DYco-BB1Ws-90">
          <mxCell style="verticalAlign=middle;align=left;overflow=width;vsdxID=314;fillColor=none;gradientColor=none;shape=stencil(nZBLDoAgDERP0z3SIyjew0SURgSD+Lu9kMZoXLhwN9O+tukAlrNpJg1SzDH4QW/URgNYgZTkjA4UkwJUgGXng+6DX1zLfmoymdXo17xh5zmRJ6Q42BWCfc2oJfdAr+Yv+AP9Cb7OJ3H/2JG1HNGz/84klThPVCc=);strokeColor=none;points=[];labelBackgroundColor=none;rounded=0;html=1;whiteSpace=wrap;fontSize=20;" vertex="1" parent="1">
            <mxGeometry x="688" y="308" width="119.08" height="40" as="geometry" />
          </mxCell>
        </UserObject>
      </root>
    </mxGraphModel>
  </diagram>
</mxfile>
